<svg version="1.1" id="Слой_1" xmlns="http://www.w3.org/2000/svg" xmlns:xlink="http://www.w3.org/1999/xlink" x="0px" y="0px"
	 viewBox="-259 367 91.5 60" style="enable-background:new -259 367 91.5 60;" xml:space="preserve">
<path style="fill: #fff" d="M-259,388.9c0-12.1,9.9-21.9,22-21.9s22,9.8,22,21.9s-9.9,21.9-22,21.9S-259,401-259,388.9z"/>
<path style="fill: #fff" d="M-236.5,375.9c-2.3,2.3-3.4,5.1-3.4,8.3c0,3.3,1.1,6.1,3.4,8.4c2.3,2.4,5,3.5,8.1,3.5c2,0,3.9-0.6,5.7-1.7
	c-0.8,9.1-6.1,17.6-15.7,25.4c-2,1.6-2.2,3.4-0.7,5.4c0.8,1.1,1.9,1.7,3.2,1.7c0.8,0,1.6-0.3,2.2-1c11.8-9.5,18-20,18.7-31.8
	c0.7-8.1-1.1-14.3-5.2-18.3c-0.5-0.5-0.7-0.8-0.7-1c-0.6-0.4-1.1-0.8-1.7-1.2h-0.2l-1.5-0.7l0.2,0.2c-1.5-0.7-2.9-1-4.2-1
	C-231.5,372.2-234.2,373.4-236.5,375.9L-236.5,375.9z"/>
<path style="fill: #fff" d="M-211.6,388.9c0-12.1,9.9-21.9,22-21.9s22,9.8,22,21.9s-9.9,21.9-22,21.9S-211.6,401-211.6,388.9z"/>
<path style="fill: #fff" d="M-189,375.9c-2.3,2.3-3.4,5.1-3.4,8.3c0,3.3,1.1,6.1,3.4,8.4c2.3,2.4,5,3.5,8.1,3.5c2,0,3.9-0.6,5.7-1.7
	c-0.8,9.1-6.1,17.6-15.7,25.4c-2,1.6-2.2,3.4-0.7,5.4c0.8,1.1,1.9,1.7,3.2,1.7c0.8,0,1.6-0.3,2.2-1c11.8-9.5,18-20,18.7-31.8
	c0.7-8.1-1.1-14.3-5.2-18.3c-0.5-0.5-0.7-0.8-0.7-1c-0.6-0.4-1.1-0.8-1.7-1.2h-0.2l-1.5-0.7l0.2,0.2c-1.5-0.7-2.9-1-4.2-1
	C-184,372.2-186.7,373.4-189,375.9L-189,375.9z"/>
</svg>
